<svg width="81" height="20" viewBox="0 0 81 20" fill="none" xmlns="http://www.w3.org/2000/svg">
<path fill-rule="evenodd" clip-rule="evenodd" d="M6.147 0C7.585 0 8.897 0.225 10.084 0.676C11.27 1.126 12.294 1.775 13.158 2.622C14.0134 3.50428 14.6704 4.55917 15.085 5.716C15.525 6.914 15.745 8.243 15.745 9.703C15.745 11.163 15.525 12.491 15.085 13.689C14.6705 14.8462 14.0135 15.9014 13.158 16.784C12.2805 17.6402 11.2333 18.3031 10.084 18.73C8.897 19.18 7.585 19.405 6.147 19.405H0V0H6.147ZM26.045 0L33.514 19.405H30.899L28.93 14.297H20.25L18.308 19.405H15.72L23.187 0H26.045ZM6.12 2.243H2.534V17.163H6.147C8.322 17.163 10.043 16.491 11.311 15.149C12.578 13.806 13.211 11.991 13.211 9.703C13.211 7.414 12.578 5.599 11.311 4.257C10.043 2.914 8.313 2.243 6.121 2.243H6.12ZM24.562 2.919L21.112 12.027H28.068L24.562 2.919ZM47.777 19.405H35.536V0H38.124V17.135H47.777V19.405ZM52.414 0V17.135H62.067V19.405H49.826V0H52.414ZM65.033 9.946V13.136H61.959V9.946H65.033ZM67.998 19.406V0H80.644V2.27H70.56V8.243H79.107V10.513H70.56V17.135H80.644V19.405L67.998 19.406Z" fill="white"/>
</svg>
