<svg width="12" height="12" viewBox="0 0 12 12" fill="none" xmlns="http://www.w3.org/2000/svg">
<path fill-rule="evenodd" clip-rule="evenodd" d="M9.3335 4.1375C9.3335 1.8525 7.2585 0 4.6985 0C3.8115 0 3.092 1.8525 3.092 4.1375C3.092 4.709 3.137 5.254 3.2185 5.7495H1.645L0 11.5H4.7V8.2765C7.2585 8.2765 9.333 6.423 9.333 4.139L9.3335 4.1375ZM4.6985 0.7575C5.1635 0.7575 5.5395 2.2715 5.5395 4.1375C5.5395 6.004 5.1635 7.5175 4.699 7.5175C4.234 7.5175 3.8585 6.004 3.8585 4.1375C3.8585 2.2715 4.2345 0.7575 4.6985 0.7575Z" fill="white"/>
<path fill-rule="evenodd" clip-rule="evenodd" d="M9.424 8.276H4.704L6.514 11.5H11.233L9.424 8.276Z" fill="white"/>
</svg>
