<svg width="804" height="716" viewBox="0 0 804 716" fill="none" xmlns="http://www.w3.org/2000/svg">
<path d="M699.667 316.589C695.043 325.332 692.731 329.704 692.189 332.834C691.631 336.053 691.659 337.314 692.355 340.506C693.031 343.61 695.678 348.131 700.973 357.175C715.182 381.447 722.64 409.245 722.327 437.658C721.925 474.185 708.704 509.414 684.97 537.207C661.235 565 628.489 583.596 592.438 589.755C565.753 594.314 538.51 591.845 513.325 582.82C501.866 578.714 496.136 576.66 492.608 576.678C488.946 576.697 487.637 576.989 484.314 578.526C481.111 580.008 477.054 584.042 468.938 592.111C443.29 617.611 411.634 636.517 376.686 646.967C332.651 660.133 285.595 659.214 242.109 644.338C198.623 629.462 160.884 601.375 134.178 564.009C107.472 526.644 93.1361 481.871 93.1782 435.962C93.1782 429.36 93.1782 426.059 92.6599 423.827C91.9031 420.568 91.0796 418.825 89.0424 416.171C87.6469 414.354 85.2091 412.35 80.3335 408.344C62.1607 393.409 46.4714 375.639 33.8906 355.687C18.2417 330.87 7.71803 303.179 2.93821 274.241C-1.84161 245.303 -0.781124 215.703 6.05734 187.181C12.8958 158.658 25.3742 131.789 42.7591 108.152C60.1441 84.5151 82.0846 64.5878 107.291 49.5414C132.498 34.495 160.462 24.6331 189.539 20.5355C218.616 16.4378 248.221 18.187 276.611 25.6803C295.749 30.7314 314.075 38.3237 331.11 48.2218C341.204 54.0864 346.251 57.0187 349.919 57.607C353.562 58.1914 355.294 58.0768 358.828 57.0174C362.387 55.9508 367.017 52.368 376.278 45.2025C410.96 18.368 453.208 2.56755 497.473 0.286818C551.326 -2.48797 604.271 14.9493 645.909 49.1732C687.546 83.3971 714.866 131.934 722.501 185.249C728.987 230.539 720.869 276.496 699.667 316.589ZM248.536 321.696C249.062 315.132 248.211 308.531 246.036 302.314C243.862 296.098 240.412 290.403 235.908 285.594C231.404 280.785 225.945 276.968 219.88 274.386C213.814 271.805 207.276 270.517 200.684 270.603C194.043 270.482 187.449 271.74 181.32 274.297C175.191 276.854 169.66 280.655 165.079 285.458C160.497 290.261 156.964 295.962 154.703 302.2C152.443 308.438 151.504 315.077 151.946 321.696C151.547 328.276 152.5 334.868 154.747 341.066C156.994 347.264 160.486 352.938 165.01 357.738C169.534 362.538 174.993 366.363 181.052 368.977C187.111 371.592 193.641 372.94 200.241 372.94C206.841 372.94 213.372 371.592 219.43 368.977C225.489 366.363 230.949 362.538 235.472 357.738C239.996 352.938 243.489 347.264 245.735 341.066C247.982 334.868 248.935 328.276 248.536 321.696ZM416.571 324.149C416.544 322.756 416.531 322.059 416.53 321.909C416.529 321.526 416.527 321.925 416.532 321.541C416.534 321.391 416.555 320.676 416.597 319.244C416.766 313.493 415.882 307.751 413.981 302.304C411.81 296.084 408.361 290.385 403.855 285.574C399.349 280.763 393.886 276.946 387.816 274.368C381.747 271.79 375.204 270.507 368.609 270.603C361.973 270.491 355.386 271.755 349.264 274.315C343.142 276.876 337.619 280.678 333.043 285.48C328.468 290.282 324.94 295.98 322.683 302.214C320.426 308.448 319.489 315.082 319.931 321.696C319.467 328.31 320.372 334.948 322.587 341.198C324.803 347.448 328.283 353.175 332.81 358.024C337.337 362.873 342.815 366.74 348.903 369.384C354.99 372.028 361.558 373.392 368.196 373.392C374.834 373.392 381.402 372.028 387.489 369.384C393.577 366.74 399.055 362.873 403.582 358.024C408.109 353.175 411.589 347.448 413.805 341.198C415.747 335.721 416.681 329.945 416.571 324.149ZM584.53 323.997C584.514 322.69 584.505 322.037 584.505 321.896C584.506 321.537 584.502 321.911 584.509 321.551C584.511 321.41 584.533 320.739 584.577 319.397C584.766 313.589 583.882 307.789 581.961 302.29C579.786 296.065 576.332 290.364 571.82 285.552C567.307 280.74 561.837 276.924 555.76 274.35C549.684 271.775 543.135 270.499 536.535 270.603C529.898 270.491 523.311 271.755 517.189 274.315C511.067 276.876 505.544 280.678 500.969 285.48C496.394 290.282 492.866 295.98 490.609 302.214C488.352 308.448 487.415 315.082 487.856 321.696C487.457 328.276 488.41 334.868 490.657 341.066C492.904 347.264 496.396 352.938 500.92 357.738C505.444 362.538 510.903 366.363 516.962 368.977C523.021 371.592 529.551 372.94 536.151 372.94C542.751 372.94 549.282 371.592 555.341 368.977C561.399 366.363 566.859 362.538 571.382 357.738C575.906 352.938 579.399 347.264 581.645 341.066C583.63 335.59 584.605 329.808 584.53 323.997ZM736.676 716C723.361 716 710.345 712.056 699.273 704.668C688.202 697.28 679.573 686.778 674.477 674.492C669.382 662.205 668.049 648.686 670.646 635.642C673.244 622.599 679.656 610.618 689.071 601.215C698.487 591.811 710.483 585.407 723.542 582.813C736.602 580.218 750.138 581.55 762.44 586.639C774.742 591.728 785.256 600.346 792.654 611.404C800.052 622.461 804 635.462 804 648.76C804 666.583 796.915 683.677 784.302 696.285C771.689 708.893 754.581 715.984 736.735 716H736.676Z" fill="#1C1C1C"/>
</svg>
